<?xml version="1.0" encoding="UTF-8" standalone="no"?>
<svg
   xmlns:dc="http://purl.org/dc/elements/1.1/"
   xmlns:cc="http://creativecommons.org/ns#"
   xmlns:rdf="http://www.w3.org/1999/02/22-rdf-syntax-ns#"
   xmlns:svg="http://www.w3.org/2000/svg"
   xmlns="http://www.w3.org/2000/svg"
   xmlns:sodipodi="http://sodipodi.sourceforge.net/DTD/sodipodi-0.dtd"
   xmlns:inkscape="http://www.inkscape.org/namespaces/inkscape"
   id="svg2"
   height="1604"
   width="1994"
   version="1.1"
   viewBox="0 0 1994 1604"
   sodipodi:docname="menu-compute.svg"
   inkscape:version="0.92.2 5c3e80d, 2017-08-06">
  <sodipodi:namedview
     pagecolor="#ffffff"
     bordercolor="#666666"
     borderopacity="1"
     objecttolerance="10"
     gridtolerance="10"
     guidetolerance="10"
     inkscape:pageopacity="0"
     inkscape:pageshadow="2"
     inkscape:window-width="1157"
     inkscape:window-height="588"
     id="namedview1700"
     showgrid="false"
     inkscape:zoom="0.1444333"
     inkscape:cx="433.25989"
     inkscape:cy="810.78654"
     inkscape:window-x="16"
     inkscape:window-y="175"
     inkscape:window-maximized="0"
     inkscape:current-layer="svg2" />
  <metadata
     id="metadata10">
    <rdf:RDF>
      <cc:Work
         rdf:about="">
        <dc:format>image/svg+xml</dc:format>
        <dc:type
           rdf:resource="http://purl.org/dc/dcmitype/StillImage" />
        <dc:title></dc:title>
      </cc:Work>
    </rdf:RDF>
  </metadata>
  <defs
     id="defs8">
    <linearGradient
       id="linearGradient5672"
       y2="916.84"
       gradientUnits="userSpaceOnUse"
       x2="1153.9"
       gradientTransform="matrix(0.99913,0,0,0.99882,266.27,-212.1)"
       y1="909.18"
       x1="-266">
      <stop
         id="stop5644"
         stop-color="#6b6b6b"
         offset="0" />
      <stop
         id="stop5646"
         stop-color="#6b6b6b"
         stop-opacity="0"
         offset="1" />
    </linearGradient>
  </defs>
  <rect
     style="fill:#f0f0f0;fill-opacity:1;fill-rule:nonzero;stroke:#6b6b6b;stroke-width:31.8686142;stroke-linecap:round;stroke-linejoin:round;stroke-miterlimit:4;stroke-dasharray:none;stroke-dashoffset:0;stroke-opacity:1"
     id="rect1469"
     width="1335.9744"
     height="1440.5995"
     x="329.01282"
     y="15.934307"
     ry="64.384331" />
  <rect
     style="fill:#ffffff;fill-opacity:1;fill-rule:nonzero;stroke:#6b6b6b;stroke-width:31.8686142;stroke-linecap:round;stroke-linejoin:round;stroke-miterlimit:4;stroke-dasharray:none;stroke-dashoffset:0;stroke-opacity:1"
     id="rect1471"
     width="1006.0052"
     height="531.17072"
     x="506.06949"
     y="120.55768"
     ry="0" />
  <g
     id="g1477"
     transform="matrix(120.44832,0,0,120.44832,-7316.6259,-16529.8)"
     style="fill:#ffffff;fill-opacity:1;stroke:#6b6b6b;stroke-opacity:1">
    <path
       d="m 66.884046,143.9056 a 0.8018086,0.8018086 0 0 1 -0.817138,0.78566 0.8018086,0.8018086 0 0 1 -0.786179,-0.81664 0.8018086,0.8018086 0 0 1 0.816139,-0.7867 0.8018086,0.8018086 0 0 1 0.787217,0.81564"
       sodipodi:open="true"
       sodipodi:end="0.017412173"
       sodipodi:start="0.019955222"
       sodipodi:ry="0.8018086"
       sodipodi:rx="0.8018086"
       sodipodi:cy="143.8896"
       sodipodi:cx="66.082397"
       sodipodi:type="arc"
       id="path1461"
       style="fill:#ffffff;fill-opacity:1;fill-rule:nonzero;stroke:#6b6b6b;stroke-width:0.26458332;stroke-linecap:round;stroke-linejoin:round;stroke-miterlimit:4;stroke-dasharray:none;stroke-dashoffset:0;stroke-opacity:1" />
    <path
       style="fill:#ffffff;fill-opacity:1;fill-rule:nonzero;stroke:#6b6b6b;stroke-width:0.26458332;stroke-linecap:round;stroke-linejoin:round;stroke-miterlimit:4;stroke-dasharray:none;stroke-dashoffset:0;stroke-opacity:1"
       id="path1463"
       sodipodi:type="arc"
       sodipodi:cx="70.136017"
       sodipodi:cy="143.8896"
       sodipodi:rx="0.8018086"
       sodipodi:ry="0.8018086"
       sodipodi:start="0.019955222"
       sodipodi:end="0.017412173"
       sodipodi:open="true"
       d="m 70.937666,143.9056 a 0.8018086,0.8018086 0 0 1 -0.817139,0.78566 0.8018086,0.8018086 0 0 1 -0.786179,-0.81664 0.8018086,0.8018086 0 0 1 0.816139,-0.7867 0.8018086,0.8018086 0 0 1 0.787217,0.81564" />
    <path
       d="m 72.964468,143.9056 a 0.8018086,0.8018086 0 0 1 -0.817139,0.78566 0.8018086,0.8018086 0 0 1 -0.786179,-0.81664 0.8018086,0.8018086 0 0 1 0.816139,-0.7867 0.8018086,0.8018086 0 0 1 0.787217,0.81564"
       sodipodi:open="true"
       sodipodi:end="0.017412173"
       sodipodi:start="0.019955222"
       sodipodi:ry="0.8018086"
       sodipodi:rx="0.8018086"
       sodipodi:cy="143.8896"
       sodipodi:cx="72.162819"
       sodipodi:type="arc"
       id="path1465"
       style="fill:#ffffff;fill-opacity:1;fill-rule:nonzero;stroke:#6b6b6b;stroke-width:0.26458332;stroke-linecap:round;stroke-linejoin:round;stroke-miterlimit:4;stroke-dasharray:none;stroke-dashoffset:0;stroke-opacity:1" />
    <path
       style="fill:#ffffff;fill-opacity:1;fill-rule:nonzero;stroke:#6b6b6b;stroke-width:0.26458332;stroke-linecap:round;stroke-linejoin:round;stroke-miterlimit:4;stroke-dasharray:none;stroke-dashoffset:0;stroke-opacity:1"
       id="path1467"
       sodipodi:type="arc"
       sodipodi:cx="68.109207"
       sodipodi:cy="143.8896"
       sodipodi:rx="0.8018086"
       sodipodi:ry="0.8018086"
       sodipodi:start="0.019955222"
       sodipodi:end="0.017412173"
       sodipodi:open="true"
       d="m 68.910856,143.9056 a 0.8018086,0.8018086 0 0 1 -0.817138,0.78566 0.8018086,0.8018086 0 0 1 -0.786179,-0.81664 0.8018086,0.8018086 0 0 1 0.816138,-0.7867 0.8018086,0.8018086 0 0 1 0.787217,0.81564" />
  </g>
  <g
     id="g1500"
     transform="matrix(120.44832,0,0,120.44832,-7316.6259,-16293.723)"
     style="fill:#ffffff;fill-opacity:1;stroke:#6b6b6b;stroke-opacity:1">
    <path
       style="fill:#ffffff;fill-opacity:1;fill-rule:nonzero;stroke:#6b6b6b;stroke-width:0.26458332;stroke-linecap:round;stroke-linejoin:round;stroke-miterlimit:4;stroke-dasharray:none;stroke-dashoffset:0;stroke-opacity:1"
       id="path1492"
       sodipodi:type="arc"
       sodipodi:cx="66.082397"
       sodipodi:cy="143.8896"
       sodipodi:rx="0.8018086"
       sodipodi:ry="0.8018086"
       sodipodi:start="0.019955222"
       sodipodi:end="0.017412173"
       sodipodi:open="true"
       d="m 66.884046,143.9056 a 0.8018086,0.8018086 0 0 1 -0.817138,0.78566 0.8018086,0.8018086 0 0 1 -0.786179,-0.81664 0.8018086,0.8018086 0 0 1 0.816139,-0.7867 0.8018086,0.8018086 0 0 1 0.787217,0.81564" />
    <path
       d="m 70.937666,143.9056 a 0.8018086,0.8018086 0 0 1 -0.817139,0.78566 0.8018086,0.8018086 0 0 1 -0.786179,-0.81664 0.8018086,0.8018086 0 0 1 0.816139,-0.7867 0.8018086,0.8018086 0 0 1 0.787217,0.81564"
       sodipodi:open="true"
       sodipodi:end="0.017412173"
       sodipodi:start="0.019955222"
       sodipodi:ry="0.8018086"
       sodipodi:rx="0.8018086"
       sodipodi:cy="143.8896"
       sodipodi:cx="70.136017"
       sodipodi:type="arc"
       id="path1494"
       style="fill:#ffffff;fill-opacity:1;fill-rule:nonzero;stroke:#6b6b6b;stroke-width:0.26458332;stroke-linecap:round;stroke-linejoin:round;stroke-miterlimit:4;stroke-dasharray:none;stroke-dashoffset:0;stroke-opacity:1" />
    <path
       style="fill:#ffffff;fill-opacity:1;fill-rule:nonzero;stroke:#6b6b6b;stroke-width:0.26458332;stroke-linecap:round;stroke-linejoin:round;stroke-miterlimit:4;stroke-dasharray:none;stroke-dashoffset:0;stroke-opacity:1"
       id="path1496"
       sodipodi:type="arc"
       sodipodi:cx="72.162819"
       sodipodi:cy="143.8896"
       sodipodi:rx="0.8018086"
       sodipodi:ry="0.8018086"
       sodipodi:start="0.019955222"
       sodipodi:end="0.017412173"
       sodipodi:open="true"
       d="m 72.964468,143.9056 a 0.8018086,0.8018086 0 0 1 -0.817139,0.78566 0.8018086,0.8018086 0 0 1 -0.786179,-0.81664 0.8018086,0.8018086 0 0 1 0.816139,-0.7867 0.8018086,0.8018086 0 0 1 0.787217,0.81564" />
    <path
       d="m 68.910856,143.9056 a 0.8018086,0.8018086 0 0 1 -0.817138,0.78566 0.8018086,0.8018086 0 0 1 -0.786179,-0.81664 0.8018086,0.8018086 0 0 1 0.816138,-0.7867 0.8018086,0.8018086 0 0 1 0.787217,0.81564"
       sodipodi:open="true"
       sodipodi:end="0.017412173"
       sodipodi:start="0.019955222"
       sodipodi:ry="0.8018086"
       sodipodi:rx="0.8018086"
       sodipodi:cy="143.8896"
       sodipodi:cx="68.109207"
       sodipodi:type="arc"
       id="path1498"
       style="fill:#ffffff;fill-opacity:1;fill-rule:nonzero;stroke:#6b6b6b;stroke-width:0.26458332;stroke-linecap:round;stroke-linejoin:round;stroke-miterlimit:4;stroke-dasharray:none;stroke-dashoffset:0;stroke-opacity:1" />
  </g>
  <g
     transform="matrix(120.44832,0,0,120.44832,-7316.6259,-16057.647)"
     id="g1510"
     style="fill:#ffffff;fill-opacity:1;stroke:#6b6b6b;stroke-opacity:1">
    <path
       d="m 66.884046,143.9056 a 0.8018086,0.8018086 0 0 1 -0.817138,0.78566 0.8018086,0.8018086 0 0 1 -0.786179,-0.81664 0.8018086,0.8018086 0 0 1 0.816139,-0.7867 0.8018086,0.8018086 0 0 1 0.787217,0.81564"
       sodipodi:open="true"
       sodipodi:end="0.017412173"
       sodipodi:start="0.019955222"
       sodipodi:ry="0.8018086"
       sodipodi:rx="0.8018086"
       sodipodi:cy="143.8896"
       sodipodi:cx="66.082397"
       sodipodi:type="arc"
       id="path1502"
       style="fill:#ffffff;fill-opacity:1;fill-rule:nonzero;stroke:#6b6b6b;stroke-width:0.26458332;stroke-linecap:round;stroke-linejoin:round;stroke-miterlimit:4;stroke-dasharray:none;stroke-dashoffset:0;stroke-opacity:1" />
    <path
       style="fill:#ffffff;fill-opacity:1;fill-rule:nonzero;stroke:#6b6b6b;stroke-width:0.26458332;stroke-linecap:round;stroke-linejoin:round;stroke-miterlimit:4;stroke-dasharray:none;stroke-dashoffset:0;stroke-opacity:1"
       id="path1504"
       sodipodi:type="arc"
       sodipodi:cx="70.136017"
       sodipodi:cy="143.8896"
       sodipodi:rx="0.8018086"
       sodipodi:ry="0.8018086"
       sodipodi:start="0.019955222"
       sodipodi:end="0.017412173"
       sodipodi:open="true"
       d="m 70.937666,143.9056 a 0.8018086,0.8018086 0 0 1 -0.817139,0.78566 0.8018086,0.8018086 0 0 1 -0.786179,-0.81664 0.8018086,0.8018086 0 0 1 0.816139,-0.7867 0.8018086,0.8018086 0 0 1 0.787217,0.81564" />
    <path
       d="m 72.964468,143.9056 a 0.8018086,0.8018086 0 0 1 -0.817139,0.78566 0.8018086,0.8018086 0 0 1 -0.786179,-0.81664 0.8018086,0.8018086 0 0 1 0.816139,-0.7867 0.8018086,0.8018086 0 0 1 0.787217,0.81564"
       sodipodi:open="true"
       sodipodi:end="0.017412173"
       sodipodi:start="0.019955222"
       sodipodi:ry="0.8018086"
       sodipodi:rx="0.8018086"
       sodipodi:cy="143.8896"
       sodipodi:cx="72.162819"
       sodipodi:type="arc"
       id="path1506"
       style="fill:#ffffff;fill-opacity:1;fill-rule:nonzero;stroke:#6b6b6b;stroke-width:0.26458332;stroke-linecap:round;stroke-linejoin:round;stroke-miterlimit:4;stroke-dasharray:none;stroke-dashoffset:0;stroke-opacity:1" />
    <path
       style="fill:#ffffff;fill-opacity:1;fill-rule:nonzero;stroke:#6b6b6b;stroke-width:0.26458332;stroke-linecap:round;stroke-linejoin:round;stroke-miterlimit:4;stroke-dasharray:none;stroke-dashoffset:0;stroke-opacity:1"
       id="path1508"
       sodipodi:type="arc"
       sodipodi:cx="68.109207"
       sodipodi:cy="143.8896"
       sodipodi:rx="0.8018086"
       sodipodi:ry="0.8018086"
       sodipodi:start="0.019955222"
       sodipodi:end="0.017412173"
       sodipodi:open="true"
       d="m 68.910856,143.9056 a 0.8018086,0.8018086 0 0 1 -0.817138,0.78566 0.8018086,0.8018086 0 0 1 -0.786179,-0.81664 0.8018086,0.8018086 0 0 1 0.816138,-0.7867 0.8018086,0.8018086 0 0 1 0.787217,0.81564" />
  </g>
</svg>
